<mxfile host="Electron" modified="2023-09-17T16:00:27.716Z" agent="Mozilla/5.0 (Macintosh; Intel Mac OS X 10_15_7) AppleWebKit/537.36 (KHTML, like Gecko) draw.io/21.7.5 Chrome/114.0.5735.289 Electron/25.8.1 Safari/537.36" etag="QUO1BVhX83SFWFl02o8w" version="21.7.5" type="device">
  <diagram name="Page-1" id="c4acf3e9-155e-7222-9cf6-157b1a14988f">
    <mxGraphModel dx="2420" dy="1113" grid="1" gridSize="10" guides="1" tooltips="1" connect="1" arrows="1" fold="1" page="1" pageScale="1" pageWidth="850" pageHeight="1100" background="none" math="0" shadow="0">
      <root>
        <mxCell id="0" />
        <mxCell id="1" parent="0" />
        <mxCell id="vwR86Tvze1g_7RQmpjsr-2" value="User" style="swimlane;fontStyle=0;childLayout=stackLayout;horizontal=1;startSize=26;fillColor=none;horizontalStack=0;resizeParent=1;resizeParentMax=0;resizeLast=0;collapsible=1;marginBottom=0;whiteSpace=wrap;html=1;" parent="1" vertex="1">
          <mxGeometry x="-830" y="51" width="140" height="104" as="geometry" />
        </mxCell>
        <mxCell id="vwR86Tvze1g_7RQmpjsr-3" value="- id: Long" style="text;strokeColor=none;fillColor=none;align=left;verticalAlign=top;spacingLeft=4;spacingRight=4;overflow=hidden;rotatable=0;points=[[0,0.5],[1,0.5]];portConstraint=eastwest;whiteSpace=wrap;html=1;" parent="vwR86Tvze1g_7RQmpjsr-2" vertex="1">
          <mxGeometry y="26" width="140" height="26" as="geometry" />
        </mxCell>
        <mxCell id="vwR86Tvze1g_7RQmpjsr-4" value="- phoneNumber: String" style="text;strokeColor=none;fillColor=none;align=left;verticalAlign=top;spacingLeft=4;spacingRight=4;overflow=hidden;rotatable=0;points=[[0,0.5],[1,0.5]];portConstraint=eastwest;whiteSpace=wrap;html=1;" parent="vwR86Tvze1g_7RQmpjsr-2" vertex="1">
          <mxGeometry y="52" width="140" height="26" as="geometry" />
        </mxCell>
        <mxCell id="vwR86Tvze1g_7RQmpjsr-5" value="- fullName: String" style="text;strokeColor=none;fillColor=none;align=left;verticalAlign=top;spacingLeft=4;spacingRight=4;overflow=hidden;rotatable=0;points=[[0,0.5],[1,0.5]];portConstraint=eastwest;whiteSpace=wrap;html=1;" parent="vwR86Tvze1g_7RQmpjsr-2" vertex="1">
          <mxGeometry y="78" width="140" height="26" as="geometry" />
        </mxCell>
        <mxCell id="vwR86Tvze1g_7RQmpjsr-7" value="kz.kcell.model" style="shape=umlFrame;whiteSpace=wrap;html=1;pointerEvents=0;width=110;height=30;" parent="1" vertex="1">
          <mxGeometry x="-840" y="10" width="730" height="330" as="geometry" />
        </mxCell>
        <mxCell id="b0qTyFD9unmppPUKO2HF-21" value="" style="edgeStyle=orthogonalEdgeStyle;rounded=0;orthogonalLoop=1;jettySize=auto;html=1;" edge="1" parent="1" source="vwR86Tvze1g_7RQmpjsr-12" target="vwR86Tvze1g_7RQmpjsr-22">
          <mxGeometry relative="1" as="geometry" />
        </mxCell>
        <mxCell id="vwR86Tvze1g_7RQmpjsr-12" value="Transaction" style="swimlane;fontStyle=0;childLayout=stackLayout;horizontal=1;startSize=26;fillColor=none;horizontalStack=0;resizeParent=1;resizeParentMax=0;resizeLast=0;collapsible=1;marginBottom=0;whiteSpace=wrap;html=1;" parent="1" vertex="1">
          <mxGeometry x="-630" y="20" width="160" height="156" as="geometry" />
        </mxCell>
        <mxCell id="vwR86Tvze1g_7RQmpjsr-13" value="- id: Long" style="text;strokeColor=none;fillColor=none;align=left;verticalAlign=top;spacingLeft=4;spacingRight=4;overflow=hidden;rotatable=0;points=[[0,0.5],[1,0.5]];portConstraint=eastwest;whiteSpace=wrap;html=1;" parent="vwR86Tvze1g_7RQmpjsr-12" vertex="1">
          <mxGeometry y="26" width="160" height="26" as="geometry" />
        </mxCell>
        <mxCell id="vwR86Tvze1g_7RQmpjsr-14" value="- userId: User" style="text;strokeColor=none;fillColor=none;align=left;verticalAlign=top;spacingLeft=4;spacingRight=4;overflow=hidden;rotatable=0;points=[[0,0.5],[1,0.5]];portConstraint=eastwest;whiteSpace=wrap;html=1;" parent="vwR86Tvze1g_7RQmpjsr-12" vertex="1">
          <mxGeometry y="52" width="160" height="26" as="geometry" />
        </mxCell>
        <mxCell id="vwR86Tvze1g_7RQmpjsr-15" value="- paymentAmount: Double" style="text;strokeColor=none;fillColor=none;align=left;verticalAlign=top;spacingLeft=4;spacingRight=4;overflow=hidden;rotatable=0;points=[[0,0.5],[1,0.5]];portConstraint=eastwest;whiteSpace=wrap;html=1;" parent="vwR86Tvze1g_7RQmpjsr-12" vertex="1">
          <mxGeometry y="78" width="160" height="26" as="geometry" />
        </mxCell>
        <mxCell id="vwR86Tvze1g_7RQmpjsr-16" value="- merchantId: Long" style="text;strokeColor=none;fillColor=none;align=left;verticalAlign=top;spacingLeft=4;spacingRight=4;overflow=hidden;rotatable=0;points=[[0,0.5],[1,0.5]];portConstraint=eastwest;whiteSpace=wrap;html=1;" parent="vwR86Tvze1g_7RQmpjsr-12" vertex="1">
          <mxGeometry y="104" width="160" height="26" as="geometry" />
        </mxCell>
        <mxCell id="vwR86Tvze1g_7RQmpjsr-17" value="- createdAt: Instant" style="text;strokeColor=none;fillColor=none;align=left;verticalAlign=top;spacingLeft=4;spacingRight=4;overflow=hidden;rotatable=0;points=[[0,0.5],[1,0.5]];portConstraint=eastwest;whiteSpace=wrap;html=1;" parent="vwR86Tvze1g_7RQmpjsr-12" vertex="1">
          <mxGeometry y="130" width="160" height="26" as="geometry" />
        </mxCell>
        <mxCell id="vwR86Tvze1g_7RQmpjsr-18" style="edgeStyle=orthogonalEdgeStyle;rounded=0;orthogonalLoop=1;jettySize=auto;html=1;endArrow=none;endFill=0;startArrow=ERmany;startFill=0;" parent="1" source="vwR86Tvze1g_7RQmpjsr-14" target="vwR86Tvze1g_7RQmpjsr-2" edge="1">
          <mxGeometry relative="1" as="geometry" />
        </mxCell>
        <mxCell id="vwR86Tvze1g_7RQmpjsr-19" value="Merchant" style="swimlane;fontStyle=0;childLayout=stackLayout;horizontal=1;startSize=26;fillColor=none;horizontalStack=0;resizeParent=1;resizeParentMax=0;resizeLast=0;collapsible=1;marginBottom=0;whiteSpace=wrap;html=1;" parent="1" vertex="1">
          <mxGeometry x="-440" y="20" width="140" height="156" as="geometry" />
        </mxCell>
        <mxCell id="vwR86Tvze1g_7RQmpjsr-20" value="- id: Long" style="text;strokeColor=none;fillColor=none;align=left;verticalAlign=top;spacingLeft=4;spacingRight=4;overflow=hidden;rotatable=0;points=[[0,0.5],[1,0.5]];portConstraint=eastwest;whiteSpace=wrap;html=1;" parent="vwR86Tvze1g_7RQmpjsr-19" vertex="1">
          <mxGeometry y="26" width="140" height="26" as="geometry" />
        </mxCell>
        <mxCell id="vwR86Tvze1g_7RQmpjsr-21" value="- userName: String" style="text;strokeColor=none;fillColor=none;align=left;verticalAlign=top;spacingLeft=4;spacingRight=4;overflow=hidden;rotatable=0;points=[[0,0.5],[1,0.5]];portConstraint=eastwest;whiteSpace=wrap;html=1;" parent="vwR86Tvze1g_7RQmpjsr-19" vertex="1">
          <mxGeometry y="52" width="140" height="26" as="geometry" />
        </mxCell>
        <mxCell id="vwR86Tvze1g_7RQmpjsr-65" value="- password: String" style="text;strokeColor=none;fillColor=none;align=left;verticalAlign=top;spacingLeft=4;spacingRight=4;overflow=hidden;rotatable=0;points=[[0,0.5],[1,0.5]];portConstraint=eastwest;whiteSpace=wrap;html=1;" parent="vwR86Tvze1g_7RQmpjsr-19" vertex="1">
          <mxGeometry y="78" width="140" height="26" as="geometry" />
        </mxCell>
        <mxCell id="vwR86Tvze1g_7RQmpjsr-22" value="- name: String" style="text;strokeColor=none;fillColor=none;align=left;verticalAlign=top;spacingLeft=4;spacingRight=4;overflow=hidden;rotatable=0;points=[[0,0.5],[1,0.5]];portConstraint=eastwest;whiteSpace=wrap;html=1;" parent="vwR86Tvze1g_7RQmpjsr-19" vertex="1">
          <mxGeometry y="104" width="140" height="26" as="geometry" />
        </mxCell>
        <mxCell id="vwR86Tvze1g_7RQmpjsr-23" value="- createdAt: Instant" style="text;strokeColor=none;fillColor=none;align=left;verticalAlign=top;spacingLeft=4;spacingRight=4;overflow=hidden;rotatable=0;points=[[0,0.5],[1,0.5]];portConstraint=eastwest;whiteSpace=wrap;html=1;" parent="vwR86Tvze1g_7RQmpjsr-19" vertex="1">
          <mxGeometry y="130" width="140" height="26" as="geometry" />
        </mxCell>
        <mxCell id="vwR86Tvze1g_7RQmpjsr-35" value="&lt;div style=&quot;background-color:#282c34;color:#abb2bf&quot;&gt;&lt;pre style=&quot;font-family:&#39;JetBrains Mono&#39;,monospace;font-size:10.1pt;&quot;&gt;&lt;div&gt;&lt;pre style=&quot;font-family:&#39;JetBrains Mono&#39;,monospace;font-size:10.1pt;&quot;&gt;@ManyToMany&lt;span style=&quot;color:#e8ba36;&quot;&gt;(&lt;/span&gt;&lt;span style=&quot;color:#d19a66;&quot;&gt;cascade &lt;/span&gt;= &lt;span style=&quot;color:#e5c07b;&quot;&gt;CascadeType&lt;/span&gt;.&lt;span style=&quot;color:#d19a66;&quot;&gt;ALL&lt;/span&gt;&lt;span style=&quot;color:#e8ba36;&quot;&gt;)&lt;br&gt;&lt;/span&gt;&lt;span style=&quot;color:#e5c07b;&quot;&gt;@JoinTable&lt;/span&gt;&lt;span style=&quot;color:#e8ba36;&quot;&gt;(&lt;br&gt;&lt;/span&gt;&lt;span style=&quot;color:#e8ba36;&quot;&gt;        &lt;/span&gt;&lt;span style=&quot;color:#d19a66;&quot;&gt;name &lt;/span&gt;= &lt;span style=&quot;color:#98c379;&quot;&gt;&quot;users_merchants&quot;&lt;/span&gt;,&lt;br&gt;        &lt;span style=&quot;color:#d19a66;&quot;&gt;joinColumns &lt;/span&gt;= &lt;span style=&quot;color:#e5c07b;&quot;&gt;@JoinColumn&lt;/span&gt;&lt;span style=&quot;color:#54a857;&quot;&gt;(&lt;/span&gt;&lt;span style=&quot;color:#d19a66;&quot;&gt;name &lt;/span&gt;= &lt;span style=&quot;color:#98c379;&quot;&gt;&quot;user_id&quot;&lt;/span&gt;&lt;span style=&quot;color:#54a857;&quot;&gt;)&lt;/span&gt;,&lt;br&gt;        &lt;span style=&quot;color:#d19a66;&quot;&gt;inverseJoinColumns &lt;/span&gt;= &lt;span style=&quot;color:#e5c07b;&quot;&gt;@JoinColumn&lt;/span&gt;&lt;span style=&quot;color:#54a857;&quot;&gt;(&lt;/span&gt;&lt;span style=&quot;color:#d19a66;&quot;&gt;name &lt;/span&gt;= &lt;span style=&quot;color:#98c379;&quot;&gt;&quot;merchant_id&quot;&lt;/span&gt;&lt;span style=&quot;color:#54a857;&quot;&gt;)&lt;br&gt;&lt;/span&gt;&lt;span style=&quot;color:#e8ba36;&quot;&gt;)&lt;br&gt;&lt;/span&gt;&lt;span style=&quot;color:#c678dd;&quot;&gt;private &lt;/span&gt;Set&lt;span style=&quot;color:#e8ba36;&quot;&gt;&amp;lt;&lt;/span&gt;Merchant&lt;span style=&quot;color:#e8ba36;&quot;&gt;&amp;gt; &lt;/span&gt;&lt;span style=&quot;color:#e06c75;&quot;&gt;merchants&lt;/span&gt;;&lt;/pre&gt;&lt;/div&gt;&lt;/pre&gt;&lt;/div&gt;" style="text;align=left;fontStyle=1;verticalAlign=middle;spacingLeft=3;spacingRight=3;strokeColor=none;rotatable=0;points=[[0,0.5],[1,0.5]];portConstraint=eastwest;html=1;" parent="1" vertex="1">
          <mxGeometry x="-830" y="195" width="510" height="116" as="geometry" />
        </mxCell>
        <mxCell id="b0qTyFD9unmppPUKO2HF-22" value="" style="edgeStyle=orthogonalEdgeStyle;rounded=0;orthogonalLoop=1;jettySize=auto;html=1;" edge="1" parent="1" source="vwR86Tvze1g_7RQmpjsr-36" target="vwR86Tvze1g_7RQmpjsr-22">
          <mxGeometry relative="1" as="geometry" />
        </mxCell>
        <mxCell id="vwR86Tvze1g_7RQmpjsr-36" value="Code" style="swimlane;fontStyle=0;childLayout=stackLayout;horizontal=1;startSize=26;fillColor=none;horizontalStack=0;resizeParent=1;resizeParentMax=0;resizeLast=0;collapsible=1;marginBottom=0;whiteSpace=wrap;html=1;" parent="1" vertex="1">
          <mxGeometry x="-260" y="24" width="140" height="156" as="geometry" />
        </mxCell>
        <mxCell id="vwR86Tvze1g_7RQmpjsr-37" value="- id: Long" style="text;strokeColor=none;fillColor=none;align=left;verticalAlign=top;spacingLeft=4;spacingRight=4;overflow=hidden;rotatable=0;points=[[0,0.5],[1,0.5]];portConstraint=eastwest;whiteSpace=wrap;html=1;" parent="vwR86Tvze1g_7RQmpjsr-36" vertex="1">
          <mxGeometry y="26" width="140" height="26" as="geometry" />
        </mxCell>
        <mxCell id="vwR86Tvze1g_7RQmpjsr-38" value="- merchantId: Long" style="text;strokeColor=none;fillColor=none;align=left;verticalAlign=top;spacingLeft=4;spacingRight=4;overflow=hidden;rotatable=0;points=[[0,0.5],[1,0.5]];portConstraint=eastwest;whiteSpace=wrap;html=1;" parent="vwR86Tvze1g_7RQmpjsr-36" vertex="1">
          <mxGeometry y="52" width="140" height="26" as="geometry" />
        </mxCell>
        <mxCell id="vwR86Tvze1g_7RQmpjsr-103" value="- code: Integer" style="text;strokeColor=none;fillColor=none;align=left;verticalAlign=top;spacingLeft=4;spacingRight=4;overflow=hidden;rotatable=0;points=[[0,0.5],[1,0.5]];portConstraint=eastwest;whiteSpace=wrap;html=1;" parent="vwR86Tvze1g_7RQmpjsr-36" vertex="1">
          <mxGeometry y="78" width="140" height="26" as="geometry" />
        </mxCell>
        <mxCell id="vwR86Tvze1g_7RQmpjsr-41" value="- isConfirmed: Boolean" style="text;strokeColor=none;fillColor=none;align=left;verticalAlign=top;spacingLeft=4;spacingRight=4;overflow=hidden;rotatable=0;points=[[0,0.5],[1,0.5]];portConstraint=eastwest;whiteSpace=wrap;html=1;" parent="vwR86Tvze1g_7RQmpjsr-36" vertex="1">
          <mxGeometry y="104" width="140" height="26" as="geometry" />
        </mxCell>
        <mxCell id="vwR86Tvze1g_7RQmpjsr-39" value="- createdAt: Instant" style="text;strokeColor=none;fillColor=none;align=left;verticalAlign=top;spacingLeft=4;spacingRight=4;overflow=hidden;rotatable=0;points=[[0,0.5],[1,0.5]];portConstraint=eastwest;whiteSpace=wrap;html=1;" parent="vwR86Tvze1g_7RQmpjsr-36" vertex="1">
          <mxGeometry y="130" width="140" height="26" as="geometry" />
        </mxCell>
        <mxCell id="vwR86Tvze1g_7RQmpjsr-64" value="kz.kcell.dto" style="shape=umlFrame;whiteSpace=wrap;html=1;pointerEvents=0;width=110;height=30;" parent="1" vertex="1">
          <mxGeometry x="-90" y="10" width="320" height="260" as="geometry" />
        </mxCell>
        <mxCell id="vwR86Tvze1g_7RQmpjsr-66" value="JwtRequestDTO" style="swimlane;fontStyle=0;childLayout=stackLayout;horizontal=1;startSize=26;fillColor=none;horizontalStack=0;resizeParent=1;resizeParentMax=0;resizeLast=0;collapsible=1;marginBottom=0;whiteSpace=wrap;html=1;" parent="1" vertex="1">
          <mxGeometry x="-80" y="51" width="140" height="78" as="geometry" />
        </mxCell>
        <mxCell id="vwR86Tvze1g_7RQmpjsr-67" value="- userName: String" style="text;strokeColor=none;fillColor=none;align=left;verticalAlign=top;spacingLeft=4;spacingRight=4;overflow=hidden;rotatable=0;points=[[0,0.5],[1,0.5]];portConstraint=eastwest;whiteSpace=wrap;html=1;" parent="vwR86Tvze1g_7RQmpjsr-66" vertex="1">
          <mxGeometry y="26" width="140" height="26" as="geometry" />
        </mxCell>
        <mxCell id="vwR86Tvze1g_7RQmpjsr-68" value="- password: String" style="text;strokeColor=none;fillColor=none;align=left;verticalAlign=top;spacingLeft=4;spacingRight=4;overflow=hidden;rotatable=0;points=[[0,0.5],[1,0.5]];portConstraint=eastwest;whiteSpace=wrap;html=1;" parent="vwR86Tvze1g_7RQmpjsr-66" vertex="1">
          <mxGeometry y="52" width="140" height="26" as="geometry" />
        </mxCell>
        <mxCell id="vwR86Tvze1g_7RQmpjsr-94" value="CodeRequestDTO" style="swimlane;fontStyle=0;childLayout=stackLayout;horizontal=1;startSize=26;fillColor=none;horizontalStack=0;resizeParent=1;resizeParentMax=0;resizeLast=0;collapsible=1;marginBottom=0;whiteSpace=wrap;html=1;" parent="1" vertex="1">
          <mxGeometry x="70" y="20" width="140" height="52" as="geometry" />
        </mxCell>
        <mxCell id="vwR86Tvze1g_7RQmpjsr-95" value="- phoneNumber: String" style="text;strokeColor=none;fillColor=none;align=left;verticalAlign=top;spacingLeft=4;spacingRight=4;overflow=hidden;rotatable=0;points=[[0,0.5],[1,0.5]];portConstraint=eastwest;whiteSpace=wrap;html=1;" parent="vwR86Tvze1g_7RQmpjsr-94" vertex="1">
          <mxGeometry y="26" width="140" height="26" as="geometry" />
        </mxCell>
        <mxCell id="vwR86Tvze1g_7RQmpjsr-98" value="JwtResponseDTO" style="swimlane;fontStyle=0;childLayout=stackLayout;horizontal=1;startSize=26;fillColor=none;horizontalStack=0;resizeParent=1;resizeParentMax=0;resizeLast=0;collapsible=1;marginBottom=0;whiteSpace=wrap;html=1;" parent="1" vertex="1">
          <mxGeometry x="-80" y="142" width="140" height="52" as="geometry" />
        </mxCell>
        <mxCell id="vwR86Tvze1g_7RQmpjsr-99" value="- token: String" style="text;strokeColor=none;fillColor=none;align=left;verticalAlign=top;spacingLeft=4;spacingRight=4;overflow=hidden;rotatable=0;points=[[0,0.5],[1,0.5]];portConstraint=eastwest;whiteSpace=wrap;html=1;" parent="vwR86Tvze1g_7RQmpjsr-98" vertex="1">
          <mxGeometry y="26" width="140" height="26" as="geometry" />
        </mxCell>
        <mxCell id="vwR86Tvze1g_7RQmpjsr-101" value="CodeResponseDTO" style="swimlane;fontStyle=0;childLayout=stackLayout;horizontal=1;startSize=26;fillColor=none;horizontalStack=0;resizeParent=1;resizeParentMax=0;resizeLast=0;collapsible=1;marginBottom=0;whiteSpace=wrap;html=1;" parent="1" vertex="1">
          <mxGeometry x="70" y="87" width="140" height="78" as="geometry" />
        </mxCell>
        <mxCell id="vwR86Tvze1g_7RQmpjsr-102" value="- codeId: Long" style="text;strokeColor=none;fillColor=none;align=left;verticalAlign=top;spacingLeft=4;spacingRight=4;overflow=hidden;rotatable=0;points=[[0,0.5],[1,0.5]];portConstraint=eastwest;whiteSpace=wrap;html=1;" parent="vwR86Tvze1g_7RQmpjsr-101" vertex="1">
          <mxGeometry y="26" width="140" height="26" as="geometry" />
        </mxCell>
        <mxCell id="vwR86Tvze1g_7RQmpjsr-104" value="- createdAt: Instant" style="text;strokeColor=none;fillColor=none;align=left;verticalAlign=top;spacingLeft=4;spacingRight=4;overflow=hidden;rotatable=0;points=[[0,0.5],[1,0.5]];portConstraint=eastwest;whiteSpace=wrap;html=1;" parent="vwR86Tvze1g_7RQmpjsr-101" vertex="1">
          <mxGeometry y="52" width="140" height="26" as="geometry" />
        </mxCell>
        <mxCell id="vwR86Tvze1g_7RQmpjsr-110" value="CodeConfirmDTO" style="swimlane;fontStyle=0;childLayout=stackLayout;horizontal=1;startSize=26;fillColor=none;horizontalStack=0;resizeParent=1;resizeParentMax=0;resizeLast=0;collapsible=1;marginBottom=0;whiteSpace=wrap;html=1;" parent="1" vertex="1">
          <mxGeometry x="70" y="180" width="140" height="78" as="geometry" />
        </mxCell>
        <mxCell id="b0qTyFD9unmppPUKO2HF-1" value="- phoneNumber: String" style="text;strokeColor=none;fillColor=none;align=left;verticalAlign=top;spacingLeft=4;spacingRight=4;overflow=hidden;rotatable=0;points=[[0,0.5],[1,0.5]];portConstraint=eastwest;whiteSpace=wrap;html=1;" vertex="1" parent="vwR86Tvze1g_7RQmpjsr-110">
          <mxGeometry y="26" width="140" height="26" as="geometry" />
        </mxCell>
        <mxCell id="vwR86Tvze1g_7RQmpjsr-111" value="- code: String" style="text;strokeColor=none;fillColor=none;align=left;verticalAlign=top;spacingLeft=4;spacingRight=4;overflow=hidden;rotatable=0;points=[[0,0.5],[1,0.5]];portConstraint=eastwest;whiteSpace=wrap;html=1;" parent="vwR86Tvze1g_7RQmpjsr-110" vertex="1">
          <mxGeometry y="52" width="140" height="26" as="geometry" />
        </mxCell>
        <mxCell id="b0qTyFD9unmppPUKO2HF-15" value="" style="group" vertex="1" connectable="0" parent="1">
          <mxGeometry x="-90" y="290" width="320" height="220" as="geometry" />
        </mxCell>
        <mxCell id="vwR86Tvze1g_7RQmpjsr-115" value="kz.kcell.repository" style="shape=umlFrame;whiteSpace=wrap;html=1;pointerEvents=0;width=120;height=30;" parent="b0qTyFD9unmppPUKO2HF-15" vertex="1">
          <mxGeometry width="320" height="220" as="geometry" />
        </mxCell>
        <mxCell id="vwR86Tvze1g_7RQmpjsr-116" value="«interface»&lt;br&gt;&lt;b&gt;JpaRepository&lt;/b&gt;" style="html=1;whiteSpace=wrap;" parent="b0qTyFD9unmppPUKO2HF-15" vertex="1">
          <mxGeometry x="25" y="41" width="110" height="50" as="geometry" />
        </mxCell>
        <mxCell id="b0qTyFD9unmppPUKO2HF-13" value="" style="edgeStyle=orthogonalEdgeStyle;rounded=0;orthogonalLoop=1;jettySize=auto;html=1;" edge="1" parent="b0qTyFD9unmppPUKO2HF-15" source="vwR86Tvze1g_7RQmpjsr-117" target="vwR86Tvze1g_7RQmpjsr-116">
          <mxGeometry relative="1" as="geometry" />
        </mxCell>
        <mxCell id="vwR86Tvze1g_7RQmpjsr-117" value="&lt;p style=&quot;margin:0px;margin-top:4px;text-align:center;&quot;&gt;&lt;br&gt;&lt;b&gt;CodeRepository&lt;/b&gt;&lt;/p&gt;" style="verticalAlign=top;align=left;overflow=fill;fontSize=12;fontFamily=Helvetica;html=1;whiteSpace=wrap;" parent="b0qTyFD9unmppPUKO2HF-15" vertex="1">
          <mxGeometry x="10" y="135" width="140" height="60" as="geometry" />
        </mxCell>
        <mxCell id="b0qTyFD9unmppPUKO2HF-12" value="" style="edgeStyle=orthogonalEdgeStyle;rounded=0;orthogonalLoop=1;jettySize=auto;html=1;" edge="1" parent="b0qTyFD9unmppPUKO2HF-15" source="vwR86Tvze1g_7RQmpjsr-120" target="vwR86Tvze1g_7RQmpjsr-116">
          <mxGeometry relative="1" as="geometry" />
        </mxCell>
        <mxCell id="vwR86Tvze1g_7RQmpjsr-120" value="&lt;p style=&quot;margin:0px;margin-top:4px;text-align:center;&quot;&gt;&lt;br&gt;&lt;b&gt;MerchantRepository&lt;/b&gt;&lt;/p&gt;" style="verticalAlign=top;align=left;overflow=fill;fontSize=12;fontFamily=Helvetica;html=1;whiteSpace=wrap;" parent="b0qTyFD9unmppPUKO2HF-15" vertex="1">
          <mxGeometry x="170" y="36" width="140" height="60" as="geometry" />
        </mxCell>
        <mxCell id="b0qTyFD9unmppPUKO2HF-14" value="" style="edgeStyle=orthogonalEdgeStyle;rounded=0;orthogonalLoop=1;jettySize=auto;html=1;" edge="1" parent="b0qTyFD9unmppPUKO2HF-15" source="b0qTyFD9unmppPUKO2HF-11" target="vwR86Tvze1g_7RQmpjsr-116">
          <mxGeometry relative="1" as="geometry">
            <Array as="points">
              <mxPoint x="240" y="110" />
              <mxPoint x="90" y="110" />
            </Array>
          </mxGeometry>
        </mxCell>
        <mxCell id="b0qTyFD9unmppPUKO2HF-11" value="&lt;p style=&quot;margin:0px;margin-top:4px;text-align:center;&quot;&gt;&lt;b&gt;&lt;br&gt;&lt;/b&gt;&lt;/p&gt;&lt;p style=&quot;margin:0px;margin-top:4px;text-align:center;&quot;&gt;&lt;b&gt;UserRepository&lt;/b&gt;&lt;/p&gt;&lt;hr size=&quot;1&quot;&gt;&lt;div style=&quot;height:2px;&quot;&gt;&lt;/div&gt;" style="verticalAlign=top;align=left;overflow=fill;fontSize=12;fontFamily=Helvetica;html=1;whiteSpace=wrap;" vertex="1" parent="b0qTyFD9unmppPUKO2HF-15">
          <mxGeometry x="170" y="135" width="140" height="60" as="geometry" />
        </mxCell>
        <mxCell id="vwR86Tvze1g_7RQmpjsr-42" value="kz.kcell.controller" style="shape=umlFrame;whiteSpace=wrap;html=1;pointerEvents=0;width=140;height=30;" parent="1" vertex="1">
          <mxGeometry x="-840" y="360" width="730" height="250" as="geometry" />
        </mxCell>
        <mxCell id="vwR86Tvze1g_7RQmpjsr-43" value="AuthController" style="swimlane;fontStyle=1;align=center;verticalAlign=top;childLayout=stackLayout;horizontal=1;startSize=26;horizontalStack=0;resizeParent=1;resizeParentMax=0;resizeLast=0;collapsible=1;marginBottom=0;whiteSpace=wrap;html=1;" parent="1" vertex="1">
          <mxGeometry x="-811.54" y="410" width="311.54" height="138" as="geometry">
            <mxRectangle x="-820" y="737" width="130" height="30" as="alternateBounds" />
          </mxGeometry>
        </mxCell>
        <mxCell id="vwR86Tvze1g_7RQmpjsr-44" value="-&amp;nbsp;userDetailsService&lt;span style=&quot;background-color: initial;&quot;&gt;:&amp;nbsp;&lt;/span&gt;UserDetailsService" style="text;strokeColor=none;fillColor=none;align=left;verticalAlign=top;spacingLeft=4;spacingRight=4;overflow=hidden;rotatable=0;points=[[0,0.5],[1,0.5]];portConstraint=eastwest;whiteSpace=wrap;html=1;" parent="vwR86Tvze1g_7RQmpjsr-43" vertex="1">
          <mxGeometry y="26" width="311.54" height="26" as="geometry" />
        </mxCell>
        <mxCell id="vwR86Tvze1g_7RQmpjsr-61" value="-&amp;nbsp;jwtTokenUtils&lt;span style=&quot;background-color: initial;&quot;&gt;:&amp;nbsp;&lt;/span&gt;JwtTokenUtils" style="text;strokeColor=none;fillColor=none;align=left;verticalAlign=top;spacingLeft=4;spacingRight=4;overflow=hidden;rotatable=0;points=[[0,0.5],[1,0.5]];portConstraint=eastwest;whiteSpace=wrap;html=1;" parent="vwR86Tvze1g_7RQmpjsr-43" vertex="1">
          <mxGeometry y="52" width="311.54" height="26" as="geometry" />
        </mxCell>
        <mxCell id="vwR86Tvze1g_7RQmpjsr-62" value="-&amp;nbsp;authenticationManager&lt;span style=&quot;background-color: initial;&quot;&gt;:&amp;nbsp;&lt;/span&gt;authenticationManager" style="text;strokeColor=none;fillColor=none;align=left;verticalAlign=top;spacingLeft=4;spacingRight=4;overflow=hidden;rotatable=0;points=[[0,0.5],[1,0.5]];portConstraint=eastwest;whiteSpace=wrap;html=1;" parent="vwR86Tvze1g_7RQmpjsr-43" vertex="1">
          <mxGeometry y="78" width="311.54" height="26" as="geometry" />
        </mxCell>
        <mxCell id="vwR86Tvze1g_7RQmpjsr-45" value="" style="line;strokeWidth=1;fillColor=none;align=left;verticalAlign=middle;spacingTop=-1;spacingLeft=3;spacingRight=3;rotatable=0;labelPosition=right;points=[];portConstraint=eastwest;strokeColor=inherit;" parent="vwR86Tvze1g_7RQmpjsr-43" vertex="1">
          <mxGeometry y="104" width="311.54" height="8" as="geometry" />
        </mxCell>
        <mxCell id="vwR86Tvze1g_7RQmpjsr-46" value="-&amp;nbsp;createUserToken&lt;span style=&quot;background-color: initial;&quot;&gt;(JwtRequestDTO):&amp;nbsp;&lt;/span&gt;JwtResponseDTO" style="text;strokeColor=none;fillColor=none;align=left;verticalAlign=top;spacingLeft=4;spacingRight=4;overflow=hidden;rotatable=0;points=[[0,0.5],[1,0.5]];portConstraint=eastwest;whiteSpace=wrap;html=1;" parent="vwR86Tvze1g_7RQmpjsr-43" vertex="1">
          <mxGeometry y="112" width="311.54" height="26" as="geometry" />
        </mxCell>
        <mxCell id="vwR86Tvze1g_7RQmpjsr-82" value="MerchantController" style="swimlane;fontStyle=1;align=center;verticalAlign=top;childLayout=stackLayout;horizontal=1;startSize=26;horizontalStack=0;resizeParent=1;resizeParentMax=0;resizeLast=0;collapsible=1;marginBottom=0;whiteSpace=wrap;html=1;" parent="1" vertex="1">
          <mxGeometry x="-469.99999999999994" y="380" width="341.54" height="112" as="geometry" />
        </mxCell>
        <mxCell id="vwR86Tvze1g_7RQmpjsr-83" value="- CodeService: CodeService" style="text;strokeColor=none;fillColor=none;align=left;verticalAlign=top;spacingLeft=4;spacingRight=4;overflow=hidden;rotatable=0;points=[[0,0.5],[1,0.5]];portConstraint=eastwest;whiteSpace=wrap;html=1;" parent="vwR86Tvze1g_7RQmpjsr-82" vertex="1">
          <mxGeometry y="26" width="341.54" height="26" as="geometry" />
        </mxCell>
        <mxCell id="vwR86Tvze1g_7RQmpjsr-84" value="" style="line;strokeWidth=1;fillColor=none;align=left;verticalAlign=middle;spacingTop=-1;spacingLeft=3;spacingRight=3;rotatable=0;labelPosition=right;points=[];portConstraint=eastwest;strokeColor=inherit;" parent="vwR86Tvze1g_7RQmpjsr-82" vertex="1">
          <mxGeometry y="52" width="341.54" height="8" as="geometry" />
        </mxCell>
        <mxCell id="vwR86Tvze1g_7RQmpjsr-85" value="+ activatePayments(CodeRequestDTO):&amp;nbsp;CodeResponseDTO" style="text;strokeColor=none;fillColor=none;align=left;verticalAlign=top;spacingLeft=4;spacingRight=4;overflow=hidden;rotatable=0;points=[[0,0.5],[1,0.5]];portConstraint=eastwest;whiteSpace=wrap;html=1;" parent="vwR86Tvze1g_7RQmpjsr-82" vertex="1">
          <mxGeometry y="60" width="341.54" height="26" as="geometry" />
        </mxCell>
        <mxCell id="vwR86Tvze1g_7RQmpjsr-109" value="+ confirmActivation(CodeConfirmDTO): CodeResponseDTO" style="text;strokeColor=none;fillColor=none;align=left;verticalAlign=top;spacingLeft=4;spacingRight=4;overflow=hidden;rotatable=0;points=[[0,0.5],[1,0.5]];portConstraint=eastwest;whiteSpace=wrap;html=1;" parent="vwR86Tvze1g_7RQmpjsr-82" vertex="1">
          <mxGeometry y="86" width="341.54" height="26" as="geometry" />
        </mxCell>
        <mxCell id="b0qTyFD9unmppPUKO2HF-17" value="PayController" style="swimlane;fontStyle=1;align=center;verticalAlign=top;childLayout=stackLayout;horizontal=1;startSize=26;horizontalStack=0;resizeParent=1;resizeParentMax=0;resizeLast=0;collapsible=1;marginBottom=0;whiteSpace=wrap;html=1;" vertex="1" parent="1">
          <mxGeometry x="-470" y="510" width="156.15" height="86" as="geometry" />
        </mxCell>
        <mxCell id="b0qTyFD9unmppPUKO2HF-18" value="- payService: PayService" style="text;strokeColor=none;fillColor=none;align=left;verticalAlign=top;spacingLeft=4;spacingRight=4;overflow=hidden;rotatable=0;points=[[0,0.5],[1,0.5]];portConstraint=eastwest;whiteSpace=wrap;html=1;" vertex="1" parent="b0qTyFD9unmppPUKO2HF-17">
          <mxGeometry y="26" width="156.15" height="26" as="geometry" />
        </mxCell>
        <mxCell id="b0qTyFD9unmppPUKO2HF-19" value="" style="line;strokeWidth=1;fillColor=none;align=left;verticalAlign=middle;spacingTop=-1;spacingLeft=3;spacingRight=3;rotatable=0;labelPosition=right;points=[];portConstraint=eastwest;strokeColor=inherit;" vertex="1" parent="b0qTyFD9unmppPUKO2HF-17">
          <mxGeometry y="52" width="156.15" height="8" as="geometry" />
        </mxCell>
        <mxCell id="b0qTyFD9unmppPUKO2HF-20" value="+ pay(payDTO): type" style="text;strokeColor=none;fillColor=none;align=left;verticalAlign=top;spacingLeft=4;spacingRight=4;overflow=hidden;rotatable=0;points=[[0,0.5],[1,0.5]];portConstraint=eastwest;whiteSpace=wrap;html=1;" vertex="1" parent="b0qTyFD9unmppPUKO2HF-17">
          <mxGeometry y="60" width="156.15" height="26" as="geometry" />
        </mxCell>
        <mxCell id="vwR86Tvze1g_7RQmpjsr-52" value="UserDetailsServiceImpl" style="swimlane;fontStyle=1;align=center;verticalAlign=top;childLayout=stackLayout;horizontal=1;startSize=26;horizontalStack=0;resizeParent=1;resizeParentMax=0;resizeLast=0;collapsible=1;marginBottom=0;whiteSpace=wrap;html=1;" parent="1" vertex="1">
          <mxGeometry x="-830" y="745" width="250" height="86" as="geometry" />
        </mxCell>
        <mxCell id="vwR86Tvze1g_7RQmpjsr-53" value="- merchantRepository: MerchantRepository" style="text;strokeColor=none;fillColor=none;align=left;verticalAlign=top;spacingLeft=4;spacingRight=4;overflow=hidden;rotatable=0;points=[[0,0.5],[1,0.5]];portConstraint=eastwest;whiteSpace=wrap;html=1;" parent="vwR86Tvze1g_7RQmpjsr-52" vertex="1">
          <mxGeometry y="26" width="250" height="26" as="geometry" />
        </mxCell>
        <mxCell id="vwR86Tvze1g_7RQmpjsr-54" value="" style="line;strokeWidth=1;fillColor=none;align=left;verticalAlign=middle;spacingTop=-1;spacingLeft=3;spacingRight=3;rotatable=0;labelPosition=right;points=[];portConstraint=eastwest;strokeColor=inherit;" parent="vwR86Tvze1g_7RQmpjsr-52" vertex="1">
          <mxGeometry y="52" width="250" height="8" as="geometry" />
        </mxCell>
        <mxCell id="vwR86Tvze1g_7RQmpjsr-55" value="+ loadUserByUserName(String): UserDetails" style="text;strokeColor=none;fillColor=none;align=left;verticalAlign=top;spacingLeft=4;spacingRight=4;overflow=hidden;rotatable=0;points=[[0,0.5],[1,0.5]];portConstraint=eastwest;whiteSpace=wrap;html=1;" parent="vwR86Tvze1g_7RQmpjsr-52" vertex="1">
          <mxGeometry y="60" width="250" height="26" as="geometry" />
        </mxCell>
        <mxCell id="vwR86Tvze1g_7RQmpjsr-63" value="kz.kcell.service" style="shape=umlFrame;whiteSpace=wrap;html=1;pointerEvents=0;width=110;height=30;container=0;" parent="1" vertex="1">
          <mxGeometry x="-840" y="620" width="1070" height="310" as="geometry" />
        </mxCell>
        <mxCell id="vwR86Tvze1g_7RQmpjsr-70" value="«interface»&lt;br&gt;&lt;b&gt;UserDetails&lt;/b&gt;" style="html=1;whiteSpace=wrap;" parent="1" vertex="1">
          <mxGeometry x="-760" y="660" width="110" height="50" as="geometry" />
        </mxCell>
        <mxCell id="vwR86Tvze1g_7RQmpjsr-71" style="edgeStyle=orthogonalEdgeStyle;rounded=0;orthogonalLoop=1;jettySize=auto;html=1;entryX=0.5;entryY=1;entryDx=0;entryDy=0;dashed=1;dashPattern=12 12;endArrow=block;endFill=0;" parent="1" source="vwR86Tvze1g_7RQmpjsr-52" target="vwR86Tvze1g_7RQmpjsr-70" edge="1">
          <mxGeometry relative="1" as="geometry" />
        </mxCell>
        <mxCell id="vwR86Tvze1g_7RQmpjsr-105" value="ConfirmationCodeService" style="swimlane;fontStyle=1;align=center;verticalAlign=top;childLayout=stackLayout;horizontal=1;startSize=26;horizontalStack=0;resizeParent=1;resizeParentMax=0;resizeLast=0;collapsible=1;marginBottom=0;whiteSpace=wrap;html=1;" parent="1" vertex="1">
          <mxGeometry x="-300" y="670" width="320" height="112" as="geometry" />
        </mxCell>
        <mxCell id="vwR86Tvze1g_7RQmpjsr-106" value="- codeRepository: CodeRepository" style="text;strokeColor=none;fillColor=none;align=left;verticalAlign=top;spacingLeft=4;spacingRight=4;overflow=hidden;rotatable=0;points=[[0,0.5],[1,0.5]];portConstraint=eastwest;whiteSpace=wrap;html=1;" parent="vwR86Tvze1g_7RQmpjsr-105" vertex="1">
          <mxGeometry y="26" width="320" height="26" as="geometry" />
        </mxCell>
        <mxCell id="vwR86Tvze1g_7RQmpjsr-107" value="" style="line;strokeWidth=1;fillColor=none;align=left;verticalAlign=middle;spacingTop=-1;spacingLeft=3;spacingRight=3;rotatable=0;labelPosition=right;points=[];portConstraint=eastwest;strokeColor=inherit;" parent="vwR86Tvze1g_7RQmpjsr-105" vertex="1">
          <mxGeometry y="52" width="320" height="8" as="geometry" />
        </mxCell>
        <mxCell id="vwR86Tvze1g_7RQmpjsr-108" value="+ requestCode(CodeRequestDTO): CodeResponseDTO" style="text;strokeColor=none;fillColor=none;align=left;verticalAlign=top;spacingLeft=4;spacingRight=4;overflow=hidden;rotatable=0;points=[[0,0.5],[1,0.5]];portConstraint=eastwest;whiteSpace=wrap;html=1;" parent="vwR86Tvze1g_7RQmpjsr-105" vertex="1">
          <mxGeometry y="60" width="320" height="26" as="geometry" />
        </mxCell>
        <mxCell id="vwR86Tvze1g_7RQmpjsr-114" value="+ confirmCode(CodeConfirmDTO): CodeResponseDTO" style="text;strokeColor=none;fillColor=none;align=left;verticalAlign=top;spacingLeft=4;spacingRight=4;overflow=hidden;rotatable=0;points=[[0,0.5],[1,0.5]];portConstraint=eastwest;whiteSpace=wrap;html=1;" parent="vwR86Tvze1g_7RQmpjsr-105" vertex="1">
          <mxGeometry y="86" width="320" height="26" as="geometry" />
        </mxCell>
        <mxCell id="b0qTyFD9unmppPUKO2HF-2" value="PayService" style="swimlane;fontStyle=1;align=center;verticalAlign=top;childLayout=stackLayout;horizontal=1;startSize=26;horizontalStack=0;resizeParent=1;resizeParentMax=0;resizeLast=0;collapsible=1;marginBottom=0;whiteSpace=wrap;html=1;" vertex="1" parent="1">
          <mxGeometry x="-80" y="807" width="200" height="86" as="geometry" />
        </mxCell>
        <mxCell id="b0qTyFD9unmppPUKO2HF-3" value="- userRepository: UserRepository" style="text;strokeColor=none;fillColor=none;align=left;verticalAlign=top;spacingLeft=4;spacingRight=4;overflow=hidden;rotatable=0;points=[[0,0.5],[1,0.5]];portConstraint=eastwest;whiteSpace=wrap;html=1;" vertex="1" parent="b0qTyFD9unmppPUKO2HF-2">
          <mxGeometry y="26" width="200" height="26" as="geometry" />
        </mxCell>
        <mxCell id="b0qTyFD9unmppPUKO2HF-4" value="" style="line;strokeWidth=1;fillColor=none;align=left;verticalAlign=middle;spacingTop=-1;spacingLeft=3;spacingRight=3;rotatable=0;labelPosition=right;points=[];portConstraint=eastwest;strokeColor=inherit;" vertex="1" parent="b0qTyFD9unmppPUKO2HF-2">
          <mxGeometry y="52" width="200" height="8" as="geometry" />
        </mxCell>
        <mxCell id="b0qTyFD9unmppPUKO2HF-5" value="+ pay(User): Boolean" style="text;strokeColor=none;fillColor=none;align=left;verticalAlign=top;spacingLeft=4;spacingRight=4;overflow=hidden;rotatable=0;points=[[0,0.5],[1,0.5]];portConstraint=eastwest;whiteSpace=wrap;html=1;" vertex="1" parent="b0qTyFD9unmppPUKO2HF-2">
          <mxGeometry y="60" width="200" height="26" as="geometry" />
        </mxCell>
        <mxCell id="b0qTyFD9unmppPUKO2HF-6" value="" style="group" vertex="1" connectable="0" parent="1">
          <mxGeometry x="-610" y="640" width="280" height="190" as="geometry" />
        </mxCell>
        <mxCell id="vwR86Tvze1g_7RQmpjsr-72" value="JwtTokenUtils" style="swimlane;fontStyle=1;align=center;verticalAlign=top;childLayout=stackLayout;horizontal=1;startSize=26;horizontalStack=0;resizeParent=1;resizeParentMax=0;resizeLast=0;collapsible=1;marginBottom=0;whiteSpace=wrap;html=1;" parent="b0qTyFD9unmppPUKO2HF-6" vertex="1">
          <mxGeometry x="50" y="26" width="230" height="164" as="geometry" />
        </mxCell>
        <mxCell id="vwR86Tvze1g_7RQmpjsr-73" value="- secrete: String" style="text;strokeColor=none;fillColor=none;align=left;verticalAlign=top;spacingLeft=4;spacingRight=4;overflow=hidden;rotatable=0;points=[[0,0.5],[1,0.5]];portConstraint=eastwest;whiteSpace=wrap;html=1;" parent="vwR86Tvze1g_7RQmpjsr-72" vertex="1">
          <mxGeometry y="26" width="230" height="26" as="geometry" />
        </mxCell>
        <mxCell id="vwR86Tvze1g_7RQmpjsr-77" value="- jwtLifeTime: Duration" style="text;strokeColor=none;fillColor=none;align=left;verticalAlign=top;spacingLeft=4;spacingRight=4;overflow=hidden;rotatable=0;points=[[0,0.5],[1,0.5]];portConstraint=eastwest;whiteSpace=wrap;html=1;" parent="vwR86Tvze1g_7RQmpjsr-72" vertex="1">
          <mxGeometry y="52" width="230" height="26" as="geometry" />
        </mxCell>
        <mxCell id="vwR86Tvze1g_7RQmpjsr-74" value="" style="line;strokeWidth=1;fillColor=none;align=left;verticalAlign=middle;spacingTop=-1;spacingLeft=3;spacingRight=3;rotatable=0;labelPosition=right;points=[];portConstraint=eastwest;strokeColor=inherit;" parent="vwR86Tvze1g_7RQmpjsr-72" vertex="1">
          <mxGeometry y="78" width="230" height="8" as="geometry" />
        </mxCell>
        <mxCell id="vwR86Tvze1g_7RQmpjsr-75" value="+ generateToken(UserDetails): String" style="text;strokeColor=none;fillColor=none;align=left;verticalAlign=top;spacingLeft=4;spacingRight=4;overflow=hidden;rotatable=0;points=[[0,0.5],[1,0.5]];portConstraint=eastwest;whiteSpace=wrap;html=1;" parent="vwR86Tvze1g_7RQmpjsr-72" vertex="1">
          <mxGeometry y="86" width="230" height="26" as="geometry" />
        </mxCell>
        <mxCell id="vwR86Tvze1g_7RQmpjsr-78" value="+ getUserName(String): String" style="text;strokeColor=none;fillColor=none;align=left;verticalAlign=top;spacingLeft=4;spacingRight=4;overflow=hidden;rotatable=0;points=[[0,0.5],[1,0.5]];portConstraint=eastwest;whiteSpace=wrap;html=1;" parent="vwR86Tvze1g_7RQmpjsr-72" vertex="1">
          <mxGeometry y="112" width="230" height="26" as="geometry" />
        </mxCell>
        <mxCell id="vwR86Tvze1g_7RQmpjsr-79" value="+ getRoles(String): List&amp;lt;String&amp;gt;" style="text;strokeColor=none;fillColor=none;align=left;verticalAlign=top;spacingLeft=4;spacingRight=4;overflow=hidden;rotatable=0;points=[[0,0.5],[1,0.5]];portConstraint=eastwest;whiteSpace=wrap;html=1;" parent="vwR86Tvze1g_7RQmpjsr-72" vertex="1">
          <mxGeometry y="138" width="230" height="26" as="geometry" />
        </mxCell>
        <mxCell id="vwR86Tvze1g_7RQmpjsr-80" value="In a good way it should be in the Utils package" style="text;align=center;fontStyle=1;verticalAlign=middle;spacingLeft=3;spacingRight=3;strokeColor=none;rotatable=0;points=[[0,0.5],[1,0.5]];portConstraint=eastwest;html=1;" parent="b0qTyFD9unmppPUKO2HF-6" vertex="1">
          <mxGeometry width="280" height="26" as="geometry" />
        </mxCell>
        <mxCell id="b0qTyFD9unmppPUKO2HF-7" value="NotificationService" style="swimlane;fontStyle=1;align=center;verticalAlign=top;childLayout=stackLayout;horizontal=1;startSize=26;horizontalStack=0;resizeParent=1;resizeParentMax=0;resizeLast=0;collapsible=1;marginBottom=0;whiteSpace=wrap;html=1;" vertex="1" parent="1">
          <mxGeometry x="-300" y="807" width="200" height="86" as="geometry" />
        </mxCell>
        <mxCell id="b0qTyFD9unmppPUKO2HF-8" value="- rabbitTemplate: RabbitTemplate" style="text;strokeColor=none;fillColor=none;align=left;verticalAlign=top;spacingLeft=4;spacingRight=4;overflow=hidden;rotatable=0;points=[[0,0.5],[1,0.5]];portConstraint=eastwest;whiteSpace=wrap;html=1;" vertex="1" parent="b0qTyFD9unmppPUKO2HF-7">
          <mxGeometry y="26" width="200" height="26" as="geometry" />
        </mxCell>
        <mxCell id="b0qTyFD9unmppPUKO2HF-9" value="" style="line;strokeWidth=1;fillColor=none;align=left;verticalAlign=middle;spacingTop=-1;spacingLeft=3;spacingRight=3;rotatable=0;labelPosition=right;points=[];portConstraint=eastwest;strokeColor=inherit;" vertex="1" parent="b0qTyFD9unmppPUKO2HF-7">
          <mxGeometry y="52" width="200" height="8" as="geometry" />
        </mxCell>
        <mxCell id="b0qTyFD9unmppPUKO2HF-10" value="+ sendMessage(String): void" style="text;strokeColor=none;fillColor=none;align=left;verticalAlign=top;spacingLeft=4;spacingRight=4;overflow=hidden;rotatable=0;points=[[0,0.5],[1,0.5]];portConstraint=eastwest;whiteSpace=wrap;html=1;" vertex="1" parent="b0qTyFD9unmppPUKO2HF-7">
          <mxGeometry y="60" width="200" height="26" as="geometry" />
        </mxCell>
      </root>
    </mxGraphModel>
  </diagram>
</mxfile>
